HIERARCHY
ROOT SpineBase
{
  OFFSET 0.000000 0.000000 0.000000
  CHANNELS 6 Xposition Yposition Zposition Zrotation Xrotation Yrotation
  JOINT SpineMid
  {
    OFFSET -0.000000 33.027905 -0.000000
    CHANNELS 3 Zrotation Xrotation Yrotation
    JOINT SpineShoulder
    {
      OFFSET -0.033758 24.296581 -0.467402
      CHANNELS 3 Zrotation Xrotation Yrotation
      JOINT Neck
      {
        OFFSET -0.030952 8.036805 -0.399498
        CHANNELS 3 Zrotation Xrotation Yrotation
        JOINT Head
        {
          OFFSET 0.770131 10.548317 1.806487
          CHANNELS 3 Zrotation Xrotation Yrotation
          End Site
          {
            OFFSET 0 0 0
          }
        }
      }
      JOINT ShoulderLeft
      {
        OFFSET -10.354812 -8.105330 -2.796214
        CHANNELS 3 Zrotation Xrotation Yrotation
        JOINT ElbowLeft
        {
          OFFSET -11.242304 -20.417415 5.651477
          CHANNELS 3 Zrotation Xrotation Yrotation
          JOINT WristLeft
          {
            OFFSET -4.645636 -6.751795 21.530402
            CHANNELS 3 Zrotation Xrotation Yrotation
            JOINT HandLeft
            {
              OFFSET -0.885094 -5.471312 -2.214743
              CHANNELS 3 Zrotation Xrotation Yrotation
              JOINT HandTipLeft
              {
                OFFSET -0.939261 0.874384 1.153550
                CHANNELS 3 Zrotation Xrotation Yrotation
                End Site
                {
                  OFFSET 0 0 0
                }
              }
              JOINT ThumbLeft
              {
                OFFSET 0.344143 0.063688 -2.022464
                CHANNELS 3 Zrotation Xrotation Yrotation
                End Site
                {
                  OFFSET 0 0 0
                }
              }
            }
          }
        }
      }
      JOINT ShoulderRight
      {
        OFFSET 9.823341 -8.595668 -12.603318
        CHANNELS 3 Zrotation Xrotation Yrotation
        JOINT ElbowRight
        {
          OFFSET 4.938159 -23.625843 0.849489
          CHANNELS 3 Zrotation Xrotation Yrotation
          JOINT WristRight
          {
            OFFSET 2.741934 -19.180571 6.515141
            CHANNELS 3 Zrotation Xrotation Yrotation
            JOINT HandRight
            {
              OFFSET -1.643529 -3.959971 3.477389
              CHANNELS 3 Zrotation Xrotation Yrotation
              JOINT HandTipRight
              {
                OFFSET 1.144456 -6.778595 2.618766
                CHANNELS 3 Zrotation Xrotation Yrotation
                End Site
                {
                  OFFSET 0 0 0
                }
              }
              JOINT ThumbRight
              {
                OFFSET -2.642006 -0.552221 -2.944853
                CHANNELS 3 Zrotation Xrotation Yrotation
                End Site
                {
                  OFFSET 0 0 0
                }
              }
            }
          }
        }
      }
    }
  }
  JOINT HipLeft
  {
    OFFSET -6.318466 -0.068303 0.037286
    CHANNELS 3 Zrotation Xrotation Yrotation
    JOINT KneeLeft
    {
      OFFSET 9.949204 -33.433891 -2.056798
      CHANNELS 3 Zrotation Xrotation Yrotation
      JOINT AnkleLeft
      {
        OFFSET -6.930479 -38.054795 -0.131950
        CHANNELS 3 Zrotation Xrotation Yrotation
        JOINT FootLeft
        {
          OFFSET -4.141157 -3.645787 -10.964670
          CHANNELS 3 Zrotation Xrotation Yrotation
          End Site
          {
            OFFSET 0 0 0
          }
        }
      }
    }
  }
  JOINT HipRight
  {
    OFFSET 6.358722 1.493758 -5.610785
    CHANNELS 3 Zrotation Xrotation Yrotation
    JOINT KneeRight
    {
      OFFSET 9.507076 -26.329494 8.424000
      CHANNELS 3 Zrotation Xrotation Yrotation
      JOINT AnkleRight
      {
        OFFSET -18.108670 -30.873602 13.594732
        CHANNELS 3 Zrotation Xrotation Yrotation
        JOINT FootRight
        {
          OFFSET -4.152759 -3.839783 -11.061515
          CHANNELS 3 Zrotation Xrotation Yrotation
          End Site
          {
            OFFSET 0 0 0
          }
        }
      }
    }
  }
}
MOTION
Frames: 13
Frame Time: 0.033333
-1.706166 75.658096 254.718224 0.000000 -0.000000 24.014420 0.000000 0.000000 -24.014420 -0.000000 0.000000 0.000000 -0.000000 0.000000 0.000000 0.000000 0.000000 0.000000 -0.000000 0.000000 0.000000 -0.000000 0.000000 0.000000 -0.000000 0.000000 0.000000 -0.000000 0.000000 0.000000 0.000000 0.000000 0.000000 0.000000 0.000000 0.000000 -0.000000 0.000000 0.000000 -0.000000 0.000000 0.000000 -0.000000 0.000000 0.000000 -0.000000 0.000000 0.000000 0.000000 0.000000 0.000000 0.000000 0.000000 0.000000 0.000000 0.000000 -24.014420 -0.000000 0.000000 0.000000 -0.000000 0.000000 0.000000 0.000000 0.000000 0.000000 0.000000 0.000000 -24.014420 -0.000000 0.000000 0.000000 -0.000000 0.000000 0.000000 0.000000 0.000000 0.000000
-0.970310 75.386078 255.051046 0.978315 -0.340990 22.386508 -0.774773 0.687836 -22.378946 -0.000000 0.000000 0.000000 -2.002779 0.913311 0.291539 0.000000 0.000000 0.000000 0.230830 -1.164060 0.706008 -0.216515 1.166807 -0.701458 6.068597 -7.732995 -0.825047 -9.227349 4.318518 2.646799 0.000000 0.000000 0.000000 0.000000 0.000000 0.000000 -0.944482 0.313968 0.034314 0.944308 -0.314491 -0.029135 1.182652 2.921334 -0.209912 1.001213 -5.231523 0.743510 0.000000 0.000000 0.000000 0.000000 0.000000 0.000000 -1.762944 1.139816 -22.283702 1.085648 -0.043402 -0.079072 -0.000000 0.000000 0.000000 0.000000 0.000000 0.000000 -3.599642 5.012049 -22.548218 5.389351 -3.177319 1.137248 -1.110899 0.296039 -0.656957 0.000000 0.000000 0.000000
-0.326766 75.154863 255.336196 1.817406 -0.624669 21.079410 -0.817166 0.396147 -21.046159 -0.912248 0.549109 -0.012416 -3.842223 1.717471 0.587518 0.000000 0.000000 0.000000 0.560925 -2.027369 1.278752 -0.515878 2.039293 -1.259646 10.141541 -12.931160 -0.918123 -14.817231 7.564921 4.875336 0.000000 0.000000 0.000000 0.000000 0.000000 0.000000 -1.822893 0.589355 0.067248 1.822297 -0.591196 -0.048470 2.339533 5.441866 -0.333500 1.675829 -9.423239 1.459808 0.000000 0.000000 0.000000 0.000000 0.000000 0.000000 -3.370213 2.084730 -20.836983 2.075703 -0.116808 -0.159501 -0.206552 -0.391912 1.074483 0.000000 0.000000 0.000000 -7.124603 9.339792 -21.151571 10.297776 -6.039743 2.496478 -2.286100 0.357799 -0.217635 0.000000 0.000000 0.000000
0.224464 74.964453 255.573673 2.520094 -0.852079 20.082239 -1.110121 0.504955 -20.027589 -0.467016 0.368134 0.016461 -6.334881 2.798517 0.876442 0.000000 0.000000 0.000000 0.147502 -2.100247 1.619932 -0.914042 2.518255 -1.622388 12.313227 -15.659498 -0.814195 -17.552681 9.358175 6.037019 0.000000 0.000000 0.000000 0.000000 0.000000 0.000000 -3.466305 1.217172 0.077926 3.533947 -0.885971 0.253162 2.576070 7.562150 -0.657446 2.018094 -12.556600 2.028141 0.000000 0.000000 0.000000 0.000000 0.000000 0.000000 -4.788240 2.871985 -19.679993 2.959357 -0.220661 -0.240241 -0.173716 -0.493137 1.094091 0.000000 0.000000 0.000000 -10.475466 13.028389 -19.883758 14.717565 -8.574430 3.979019 -3.003206 0.721169 -0.767005 0.000000 0.000000 0.000000
0.683382 74.814847 255.763478 3.088868 -1.024164 19.384451 -1.321107 0.567513 -19.309570 -0.530254 0.429145 0.023477 -8.078541 3.473806 1.157683 0.000000 0.000000 0.000000 0.370035 -1.969513 1.744989 -1.418564 2.512412 -1.743743 12.671236 -16.105266 -0.786715 -17.728508 9.769715 5.881618 0.000000 0.000000 0.000000 0.000000 0.000000 0.000000 -4.484227 1.518979 0.102814 4.585903 -0.979325 0.381084 3.303747 9.061700 -0.679046 2.018652 -14.633460 2.358920 0.000000 0.000000 0.000000 0.000000 0.000000 0.000000 -5.990251 3.533411 -18.815557 4.354166 0.321852 -0.446411 -0.672608 -1.212859 0.891123 0.000000 0.000000 0.000000 -13.570372 16.143909 -18.804471 18.649333 -10.795187 5.500658 -3.434349 1.199257 -1.614402 0.000000 0.000000 0.000000
1.049987 74.706045 255.905610 3.525790 -1.141702 18.976910 -1.448474 0.590333 -18.885146 -0.549047 0.460496 0.031065 -9.614486 4.014828 1.412521 0.000000 0.000000 0.000000 0.660846 -1.301874 1.579486 -2.022453 1.953141 -1.592869 11.232249 -14.308358 -0.878817 -15.349300 8.810488 4.349716 0.000000 0.000000 0.000000 0.000000 0.000000 0.000000 -5.426645 1.766870 0.123084 5.552935 -0.969177 0.521601 3.940991 10.033192 -0.573198 1.674769 -15.663282 2.397297 0.000000 0.000000 0.000000 0.000000 0.000000 0.000000 -6.955280 4.094372 -18.245055 5.108602 0.157933 -0.523961 -0.731893 -0.684036 0.122606 0.000000 0.000000 0.000000 -16.345634 18.760986 -17.968478 22.100096 -12.731426 6.993858 -3.686285 2.147813 -2.784440 0.000000 0.000000 0.000000
1.388917 74.678158 256.004085 3.887530 -1.213780 18.859594 -1.495565 0.539890 -18.752933 -0.526543 0.458198 0.041008 -10.995172 4.442787 1.637192 0.000000 0.000000 0.000000 -3.907874 -1.585517 0.585471 2.049288 1.201439 -0.297223 5.736301 -6.210715 -1.324940 -9.088915 2.683621 1.538004 0.000000 0.000000 0.000000 0.000000 0.000000 0.000000 -6.365121 2.217778 0.190998 6.353839 -1.216885 0.592466 5.367612 11.317327 0.051020 0.370148 -15.950616 1.835584 0.000000 0.000000 0.000000 0.000000 0.000000 0.000000 -7.851487 4.626662 -17.959048 5.817665 -0.092541 -0.588711 -0.300546 -1.034469 -0.894464 0.000000 0.000000 0.000000 -18.711940 21.149613 -17.324205 24.883440 -14.589478 8.222947 -3.262457 2.391530 -4.220967 0.000000 0.000000 0.000000
1.585141 74.667470 256.055850 4.056436 -1.228694 19.250554 -1.414602 0.473820 -19.136959 -0.430844 0.425188 0.052017 -12.101180 4.726634 1.801794 0.000000 0.000000 0.000000 -3.017418 0.153675 0.045603 0.781191 -0.547897 0.365080 1.372153 -0.404533 -0.762261 -1.308240 -0.341647 -1.817256 0.000000 0.000000 0.000000 0.000000 0.000000 0.000000 -7.098572 2.592413 0.252921 6.904186 -1.205310 0.676858 5.914961 10.918003 0.671906 -1.243102 -13.569515 0.805352 0.000000 0.000000 0.000000 0.000000 0.000000 0.000000 -8.331333 5.142182 -18.187551 6.357232 -0.505738 -0.649568 0.093774 -0.736287 -2.556260 0.000000 0.000000 0.000000 -20.160003 22.810948 -17.363307 26.564873 -16.082699 9.109378 -2.446537 3.172171 -6.160225 0.000000 0.000000 0.000000
1.513722 74.677163 256.004294 3.897114 -1.113627 20.056403 -1.176878 0.334602 -19.950389 -0.265237 0.348765 0.062151 -12.986444 4.904284 1.931523 0.000000 0.000000 0.000000 2.071228 3.207843 -0.322164 -4.522888 -3.461423 0.541695 -1.826415 3.492006 -0.112498 9.197466 0.876411 -5.736821 0.000000 0.000000 0.000000 0.000000 0.000000 0.000000 -7.523805 2.669720 0.255229 7.033320 -0.923008 0.713817 6.004799 10.299767 0.897954 -2.424121 -11.840344 0.106682 0.000000 0.000000 0.000000 0.000000 0.000000 0.000000 -8.057498 5.334926 -18.934541 6.414949 -1.001081 -0.663969 0.478781 -0.310963 -4.204048 0.000000 0.000000 0.000000 -21.057632 23.538227 -18.273641 28.053363 -16.626600 10.031587 -1.772993 3.951549 -8.120457 0.000000 0.000000 0.000000
1.616107 74.681870 255.998436 3.997973 -1.076216 20.224616 -1.108151 0.373659 -20.118472 -0.172268 0.283996 0.071030 -13.642446 4.799944 2.003946 0.000000 0.000000 0.000000 12.972192 8.774842 -1.627401 -15.526402 -8.822175 -0.269233 -3.803310 5.522672 0.340330 30.167017 8.719219 -15.801344 0.000000 0.000000 0.000000 0.000000 0.000000 0.000000 -8.228775 2.161875 0.113883 8.032663 0.385102 1.090780 4.948132 8.227909 0.865109 -1.589930 -8.895299 0.404855 0.000000 0.000000 0.000000 0.000000 0.000000 0.000000 -8.226000 5.694591 -18.980664 6.654814 -1.580536 -0.688202 0.827905 0.113509 -5.693470 0.000000 0.000000 0.000000 -23.158512 25.198854 -18.116811 30.817047 -18.112936 11.651194 -1.277960 5.025468 -10.187681 0.000000 0.000000 0.000000
1.747255 74.673135 256.005508 4.118792 -1.036625 20.105875 -1.012762 0.420543 -19.999892 -0.124167 0.241584 0.079351 -14.290601 4.411210 2.058329 0.000000 0.000000 0.000000 25.886822 14.126641 -3.928149 -28.674210 -13.510139 -3.494635 -4.457327 5.486553 1.102291 69.602350 16.167742 -39.965914 0.000000 0.000000 0.000000 0.000000 0.000000 0.000000 -9.175844 1.551887 -0.057084 9.265297 1.289190 1.405101 3.555838 8.216569 -0.340593 -0.618771 -9.770058 1.431718 0.000000 0.000000 0.000000 0.000000 0.000000 0.000000 -8.433346 5.954397 -18.762359 6.892930 -2.002101 -0.714275 1.064175 0.403947 -6.861022 0.000000 0.000000 0.000000 -23.212555 28.217569 -16.430692 30.930192 -23.756556 12.412998 0.321483 7.190000 -12.242235 0.000000 0.000000 0.000000
1.676633 74.712716 255.963052 3.987221 -0.881711 21.085839 -0.781622 0.348056 -20.988624 -0.053736 0.216226 0.086097 -14.508780 3.797509 2.018934 0.000000 0.000000 0.000000 38.529753 18.438821 -7.110066 -41.512764 -17.848340 -7.124802 -3.819608 4.718895 0.920023 98.694133 11.897013 -59.465398 0.000000 0.000000 0.000000 0.000000 0.000000 0.000000 -9.666766 0.932952 -0.221884 9.945665 2.356400 1.654998 2.164779 6.467889 -0.815989 -0.217360 -8.499030 1.520076 0.000000 0.000000 0.000000 0.000000 0.000000 0.000000 -8.184916 6.108965 -19.699307 6.960212 -2.330373 -0.741282 1.129920 0.596014 -7.403117 0.000000 0.000000 0.000000 -24.493320 28.841774 -17.653334 33.740990 -23.559288 14.150795 -0.024104 7.826383 -13.360519 0.000000 0.000000 0.000000
1.379393 74.786851 255.856925 3.623238 -0.609184 22.657145 -0.510475 0.162357 -22.574313 0.040879 0.188453 0.089874 -14.315206 3.175354 1.921030 0.000000 0.000000 0.000000 48.530747 20.898993 -9.735131 -50.999935 -19.063159 -9.711190 -2.334862 1.307478 -0.302321 109.128715 7.151780 -68.681325 0.000000 0.000000 0.000000 0.000000 0.000000 0.000000 -9.744762 0.362136 -0.360293 10.246764 3.354705 1.848810 1.174331 4.740855 -1.013715 0.434894 -6.136376 1.756831 0.000000 0.000000 0.000000 0.000000 0.000000 0.000000 -7.464889 5.964918 -21.320224 6.730921 -2.521892 -0.748061 0.996073 0.703100 -7.217918 0.000000 0.000000 0.000000 -26.510094 27.429011 -20.945418 37.958615 -18.592622 16.034751 -2.041924 7.202555 -13.433204 0.000000 0.000000 0.000000
